<svg xmlns="http://www.w3.org/2000/svg" width="413.976" height="291.39" viewBox="0 0 413.976 291.39"><defs><style>.a{fill:#fff;}.b{fill:#3d8dcc;}.c{fill:#211715;}.d{fill:#febe69;}.e{fill:#bdbdbd;}.f{fill:#201614;}.g{fill:#645d5c;}</style></defs><path class="a" d="M64.326,223.606c-7.757,2.094-19.758,2.218-30.161,2.034-.474-.008-3.2.026-6.07.066.948,5.4,1.828,10.185,2.584,13.94l.711,1.008c4.541,5.584,8.593,7.463,14.061,8.814,10.271,1.913,41.9,3.32,58.9,4h5.461V205.075l-6.049-2.4c-4.742-1.793-8.584-3.177-14.271-5.44l-7.055-2.959a58.619,58.619,0,0,1-1.665,13.106c-2.249,10.734-7.424,12.778-13.577,15.279A24.532,24.532,0,0,1,64.326,223.606Z"/><path class="a" d="M124.821,124.415a5.35,5.35,0,0,1-2.981,1.434c-3.5.865-7.011,1.7-10.56,2.437-2.926-2.763-6.965-6.622-9.884-9.341l3.307-3.629a8.57,8.57,0,0,1,2.035-7.231c1.74-1.843,4.439-2.846,7.058-3.54a8.815,8.815,0,0,0,3.414-1.317,7.459,7.459,0,0,0,1.393-1.81,15.414,15.414,0,0,1,5.275-5.109,4.222,4.222,0,0,1,3.021-.321c.824.249,1.063.819,1.137,1.841a5.8,5.8,0,0,1-.631,2.745,24.248,24.248,0,0,1-2.8,4.855l3.964,3.722c.363-.265.762-.547,1.2-.85a2.6,2.6,0,0,1,3.418-.1,2.256,2.256,0,0,1,.918,1.647,18.826,18.826,0,0,1,7.439-.8c1.958.166,2.962.6,3.116,2.157a2.707,2.707,0,0,1-1.318,2.521,13.676,13.676,0,0,1-1.514.642c-4.192,1.644-8.838,3.345-11.647,4.346l-.982.349c-.391.591-.722,1.08-.947,1.4a19.225,19.225,0,0,1-3.435,3.952"/><path class="a" d="M93.742,32.78a32.351,32.351,0,0,0-.436-4.991c-4.479,0-7.8,0-7.8,0a44.493,44.493,0,0,1-8.431,8.838C71.438,41.245,67.3,43.394,63.846,44.3c0,0-3.311.87-6.623,1.738a5.52,5.52,0,0,0-1.466-.658,4.88,4.88,0,0,0-4.146.5c-1.723,1.169-2.584,3.707-2.552,5.821a12.416,12.416,0,0,0,3.02,8.329c-.1.275-.166.437-.166.437-1.785,4.605-8.385,11.786-13.694,14.524a9.362,9.362,0,0,1,1.6,4.329,12.01,12.01,0,0,1-.2,2.105,2.444,2.444,0,0,1,1.474-.2c10.423,1.839,22.115,10.239,26.406,14.8,1.307-3.365,2.392-6.038,2.761-6.663A20.92,20.92,0,0,0,72.457,83.3a1.7,1.7,0,0,1,2.045-.932c3.4,1.049,8.717.731,12.64-.55A9.778,9.778,0,0,0,92.7,77.046a20.678,20.678,0,0,0,1.841-4.885,48.659,48.659,0,0,0,1.3-7.336,7.843,7.843,0,0,1,1.9-3.257c1.412-1.419,3.646-2.485,2.615-5.071a4.779,4.779,0,0,0-2.1-2.259c-4.591-2.7-4.533-9.8-4.506-14.925a38.033,38.033,0,0,0-.181-8.307"/><path class="a" d="M329.741,38.334q-3.225-2.445-6.247-5.143a36.014,36.014,0,0,0-1.125,11.249c-.156,5.163-.352,12.324-5.075,14.88a4.815,4.815,0,0,0-2.193,2.2c-1.131,2.569,1.082,3.723,2.453,5.2a7.894,7.894,0,0,1,1.794,3.35,49.08,49.08,0,0,0,1.046,7.439,20.786,20.786,0,0,0,1.68,4.988A9.859,9.859,0,0,0,327.5,87.51c3.907,1.431,9.256,1.943,12.719,1.008a1.715,1.715,0,0,1,2.027,1.012,41.019,41.019,0,0,1,2.077,5.307l.841,2.961c4.1-1.947,9.364-4.159,13.776-5.907,2.434-2.482,3.323-6.512,3.189-9.262-.208-4.279-1.862-8.407-3.417-12.451,5.071-2.3,7.96-6.065,8.244-11.657.108-2.13-.668-4.718-2.363-5.957a4.917,4.917,0,0,0-4.16-.648,5.54,5.54,0,0,0-1,.349l-2.955-.131a17.832,17.832,0,0,1-6.23-1.782A100.791,100.791,0,0,1,329.741,38.334Z"/><path class="b" d="M358.457,92.082c-5.529,2.2-12.249,5.072-16.354,7.237a4.221,4.221,0,0,0-2.229,4.035c.056.791.113,1.676.24,3.014l-4.043,2.13a24.778,24.778,0,0,0-.289,4.322C335.76,116.543,335.7,124,335.7,124l.041,2.122c1.1-2.472,2.571-5.579,4.232-8.622a21.951,21.951,0,0,1,3.969-5.679c6-6.725,14.739-12.583,21.925-17.069l-.2-5.4-.455.159C363.53,90.108,361.133,91.017,358.457,92.082Z"/><path class="c" d="M342.114,106.368c-.111-1.191-.538-2.883-.128-4.04.4-1.141,1.616-1.546,2.617-2.043,2.455-1.219,4.96-2.335,7.477-3.419,4.644-2,9.344-3.923,14.121-5.585,2.416-.84,1.377-4.706-1.063-3.857-5.442,1.894-10.787,4.115-16.067,6.418a86.344,86.344,0,0,0-7.859,3.688,6.39,6.39,0,0,0-3.134,3.9,14.377,14.377,0,0,0,.036,4.939,2.054,2.054,0,0,0,2,2,2.014,2.014,0,0,0,2-2Z"/><path class="c" d="M337.7,124c0-2.517.04-5.035.057-7.552A45.4,45.4,0,0,1,338,109.03a2.056,2.056,0,0,0-1.4-2.46,2.016,2.016,0,0,0-2.46,1.4,49.287,49.287,0,0,0-.381,8.176c-.019,2.618-.06,5.237-.06,7.854,0,2.574,4,2.578,4,0Z"/><path class="c" d="M327.745,51.8c-.587,1.487-.619,5.024,2.1,5.566,3.631.3,4.214-3.929,3.177-6.033C332.171,49.61,329.292,48.669,327.745,51.8Z"/><path class="c" d="M319.8,75.263a14.145,14.145,0,0,0,6.972-1.446,2.017,2.017,0,0,0,.717-2.736,2.043,2.043,0,0,0-2.736-.718c-.236.127-.476.242-.722.347l.478-.2a10.782,10.782,0,0,1-2.672.7l.531-.072a17.768,17.768,0,0,1-2.568.13,2,2,0,0,0,0,4Z"/><path class="c" d="M346.251,94.306a40.164,40.164,0,0,0-1.634-4.351,7.625,7.625,0,0,0-1.3-2.365,3.877,3.877,0,0,0-3.635-1,18.43,18.43,0,0,1-3.693.4,21.023,21.023,0,0,1-8.247-1.519A9.015,9.015,0,0,1,323.2,80.09a36.057,36.057,0,0,1-1.786-9.129,9.949,9.949,0,0,0-3.507-6.676c-.572-.538-1.3-1.03-1.012-1.874.343-1.013,1.642-1.444,2.425-2.033a11.331,11.331,0,0,0,3.811-5.743c1.889-5.853.647-12.063,1.651-18.027a2.059,2.059,0,0,0-1.4-2.461,2.018,2.018,0,0,0-2.461,1.4,69.267,69.267,0,0,0-.569,9.5,37.438,37.438,0,0,1-.662,6.962c-.434,1.951-1.163,4.08-2.88,5.271a10.565,10.565,0,0,0-2.989,2.484,5.213,5.213,0,0,0-.9,4.187c.643,2.465,3.217,3.457,4.179,5.706a11.118,11.118,0,0,1,.489,3.112,52.288,52.288,0,0,0,.874,5.279,17.777,17.777,0,0,0,4.078,8.55,13.438,13.438,0,0,0,6.8,3.558,25.932,25.932,0,0,0,9.766.613c.338-.049.675-.1,1.009-.171l.32-.071c.36-.073.415-.095.167-.068-.213-.211.09.467.11.513a44.9,44.9,0,0,1,1.678,4.4c.742,2.458,4.6,1.411,3.857-1.063Z"/><path class="a" d="M343.371,112.456a20.092,20.092,0,0,0-3.4,5.04c-2.1,3.852-3.906,7.807-5.035,10.447a48.383,48.383,0,0,0-3.25,20.178c.938,8.446,3.775,19.213,5,28.035a11.3,11.3,0,0,1-1.67,1.513c-8.121,5.966-16.21,10.637-26.161,17.387a1.486,1.486,0,0,0-.59,1.951c2.8,5.038,11.176,18.493,13.912,22.656a2.024,2.024,0,0,0,2.643.665c4.183-2.206,13.233-7.541,22.388-13.578a160.951,160.951,0,0,0,28.455,10.744c5.4,1.391,10.362,2.175,14.173,1.973.857-5.139,1.726-10.441,2.578-15.668.864.03-2.957-11.57-5.361-32.536-.654-5.714,2.585-19.6,3.252-23.47,3-17.392.744-29.1-6.122-39.913a65.256,65.256,0,0,0-4.732-6.982l-1.037-1.408a32.73,32.73,0,0,1-15.032-3.172c-6.637,4.243-14.121,9.529-19.447,15.5C343.783,112,343.589,112.21,343.371,112.456Z"/><path class="d" d="M14.557,38.1a28.439,28.439,0,0,0,6.776-.191l.322-.289c-.023.261-.05.522-.066.783a40.232,40.232,0,0,0,9.845,28.577c1.922,2.248,4.944,5.052,6.791,8,5.307-2.741,11.9-9.919,13.688-14.522,0,0,.063-.162.166-.437a12.416,12.416,0,0,1-3.02-8.329c-.032-2.114.829-4.652,2.552-5.821a4.88,4.88,0,0,1,4.146-.5,5.52,5.52,0,0,1,1.466.658c3.312-.868,6.623-1.738,6.623-1.738,3.453-.908,7.592-3.057,13.225-7.672A44.493,44.493,0,0,0,85.5,27.792h7.8a29.4,29.4,0,0,0-2.487-7.5c-.774-1.7-5.056-8.879-14.545-13.521-.91-.445-1.867-.867-2.874-1.258A39.994,39.994,0,0,0,55.364,2.7,32.783,32.783,0,0,0,37.62,9.344l-1.206-1.92C28.917-2.135,16.8,2.272,14.9,9.92c-1.255,5.071-1.723,8.22-4.314,12.724-2.462,4.279-4.4,5.026-8.069,6.49a.858.858,0,0,0-.386,1.278A16.654,16.654,0,0,0,14.29,38.074C14.376,38.085,14.465,38.1,14.557,38.1Z"/><path class="c" d="M83.654,26.945a49.765,49.765,0,0,1-9.983,9.837,31.2,31.2,0,0,1-10.357,5.591c-2.483.668-1.429,4.528,1.064,3.857A34.39,34.39,0,0,0,76,40a56.189,56.189,0,0,0,11.11-11.039,2.014,2.014,0,0,0-.718-2.737,2.048,2.048,0,0,0-2.736.718Z"/><path class="c" d="M37.828,6.009A15.1,15.1,0,0,0,23.709.17,13.329,13.329,0,0,0,13.567,7.707c-1.145,2.661-1.451,5.661-2.3,8.426a23.091,23.091,0,0,1-3.773,7.586c-1.451,1.818-3.415,2.626-5.506,3.487A2.878,2.878,0,0,0,.281,31.133,14.2,14.2,0,0,0,3.15,34.8c5.012,4.989,11.954,6.051,18.715,5.039a2.015,2.015,0,0,0,1.4-2.461,2.053,2.053,0,0,0-2.461-1.4,19.536,19.536,0,0,1-10.277-.935c-2.56-1.069-5.647-3.311-6.789-5.936l.273,1.01-.026.187-.718.717c1.287-.813,2.874-1.156,4.189-1.979a13.158,13.158,0,0,0,3.6-3.437,30.451,30.451,0,0,0,4.7-10.668c.759-3,1.022-6.038,3.342-8.261A10.073,10.073,0,0,1,25.921,3.97C29.657,3.943,32.728,6.005,35,8.838a2.012,2.012,0,0,0,2.828,0,2.049,2.049,0,0,0,0-2.829Z"/><path class="c" d="M71.99,90.375c.659-1.494,1.257-3.01,1.772-4.56.154-.462.3-.927.443-1.393a2.126,2.126,0,0,0,.142-.468c-.069-.1-.216.224-.226.322l-.151.021q.316.1.639.176c.223.054.449.1.676.146a22,22,0,0,0,2.359.311,24.481,24.481,0,0,0,4.415-.071,19.081,19.081,0,0,0,8.068-2.225,13.626,13.626,0,0,0,5.282-6.693,38.9,38.9,0,0,0,2.237-9.471,5.484,5.484,0,0,1,1.228-3.2c.72-.84,1.681-1.436,2.405-2.275a5.245,5.245,0,0,0-.495-7.328c-.779-.76-1.8-1.191-2.555-1.966a7.105,7.105,0,0,1-1.59-2.815c-1.855-5.746-.3-11.989-1.077-17.878a2.066,2.066,0,0,0-2-2,2.012,2.012,0,0,0-2,2c.72,5.456-.245,10.938.626,16.392a13.609,13.609,0,0,0,2.718,6.567,12.992,12.992,0,0,0,2.633,2.187c.623.452,1.321,1.194.927,1.971-.375.739-1.35,1.265-1.943,1.83a9.946,9.946,0,0,0-2.362,3.628,19.729,19.729,0,0,0-.688,3.968,43.34,43.34,0,0,1-1.116,4.985c-.745,2.541-1.9,5.2-4.249,6.646-2.141,1.322-5.017,1.667-7.482,1.786a18.064,18.064,0,0,1-4.449-.239c-1.583-.322-2.905-.749-4.345.3a4.667,4.667,0,0,0-1.592,2.682,43.5,43.5,0,0,1-1.7,4.648,2.065,2.065,0,0,0,.718,2.737,2.015,2.015,0,0,0,2.736-.718Z"/><path class="c" d="M95.742,32.78A30.308,30.308,0,0,0,92,18.27,31.878,31.878,0,0,0,84.6,9.784,41.911,41.911,0,0,0,51.054,1.267c-10.6,1.9-19.488,9.047-25.17,18.016a40.5,40.5,0,0,0-3.267,37.078A45.321,45.321,0,0,0,31.129,69.64c2.158,2.347,4.579,4.628,6.026,7.514,1.171,2.336.44,4.909-.213,7.308-.678,2.487,3.18,3.548,3.857,1.063.614-2.255,1.286-4.874.9-7.215-.443-2.717-2.109-5.054-3.813-7.137-2.912-3.562-6.205-6.622-8.636-10.565a36.84,36.84,0,0,1-3.23-32.754c3.768-9.784,12.046-18.689,22.225-21.8a33.951,33.951,0,0,1,12.431-1.42A38.6,38.6,0,0,1,78.472,10.28a31.061,31.061,0,0,1,9.508,9.086A25.6,25.6,0,0,1,91.742,32.78c.06,2.57,4.06,2.579,4,0Z"/><path class="c" d="M88.156,46.418c.529,1.494.437,5-2.276,5.442-3.609.169-4.039-4.042-2.936-6.091C83.847,44.091,86.733,43.261,88.156,46.418Z"/><path class="c" d="M95.277,65.969a18.525,18.525,0,0,1-2.093-.151l.532.072a11.377,11.377,0,0,1-2.816-.739l.478.2a8.792,8.792,0,0,1-.96-.483A2,2,0,0,0,88.4,68.324a14.1,14.1,0,0,0,6.878,1.645,2,2,0,0,0,0-4Z"/><path class="c" d="M49.985,59.932c-.164.414.15-.3-.032.078-.068.143-.132.288-.2.431-.149.3-.308.6-.474.893-.366.647-.769,1.273-1.193,1.884a32.528,32.528,0,0,1-2.993,3.668,30.006,30.006,0,0,1-7.478,6.16A2,2,0,0,0,39.632,76.5a34.714,34.714,0,0,0,8.436-6.947A28.563,28.563,0,0,0,53.842,61a2.015,2.015,0,0,0-1.4-2.46,2.048,2.048,0,0,0-2.46,1.4Z"/><path class="c" d="M60.244,46.089a7.977,7.977,0,0,0-7.371-2.823c-2.736.447-4.565,2.753-5.354,5.274-1.35,4.313.159,9.414,3.027,12.765a17.361,17.361,0,0,0,6.04,4.33,2.06,2.06,0,0,0,2.736-.718,2.016,2.016,0,0,0-.717-2.736c-3.873-1.766-6.654-4.4-7.392-8.577-.307-1.738-.282-4.042.967-5.558,1.519-1.845,3.967-.6,5.236.871a2.017,2.017,0,0,0,2.828,0,2.039,2.039,0,0,0,0-2.828Z"/><path class="c" d="M49.985,59.932c-.164.414.15-.3-.032.078-.068.143-.132.288-.2.431-.149.3-.308.6-.474.893-.366.647-.769,1.273-1.193,1.884a32.528,32.528,0,0,1-2.993,3.668,30.006,30.006,0,0,1-7.478,6.16A2,2,0,0,0,39.632,76.5a34.714,34.714,0,0,0,8.436-6.947A28.563,28.563,0,0,0,53.842,61a2.015,2.015,0,0,0-1.4-2.46,2.048,2.048,0,0,0-2.46,1.4Z"/><path class="e" d="M34.165,225.64c11.793.208,25.64.022,33.029-2.983,6.153-2.5,11.328-4.545,13.577-15.279a60.508,60.508,0,0,0,1.683-16.032l-.868-35.526c1.348-6.646,2.553-13.9,2.594-16.159a38.813,38.813,0,0,0-.365-6.818c-.739-6.5-3.3-11.808-5.1-16.792-1.838-5.068-5.075-12.956-10.038-19.5-3.4-4.239-16.4-13.356-27.578-15.329a2.577,2.577,0,0,0-2.9,1.847c-.479,1.653-.9,3.671-.9,3.671l-2.767,5.91a51.144,51.144,0,0,0-4.023,5.462c-6.867,10.814-9.118,22.521-6.122,39.912.667,3.873,3.906,17.757,3.251,23.47a269.843,269.843,0,0,1-4.549,27.184l-.825,2.1c1.945,11.976,4.015,24.579,5.831,34.921C30.967,225.666,33.691,225.632,34.165,225.64Z"/><path class="b" d="M375.671,217.494a160.911,160.911,0,0,1-28.454-10.744c-9.156,6.037-18.206,11.372-22.389,13.578a2.024,2.024,0,0,1-2.643-.665c-.424-.646-.984-1.515-1.638-2.541a88.879,88.879,0,0,1-16.014,7.195c0,15.608,0,29.651,0,39.651l6.266-.373c17-.675,48.629-2.082,58.9-4,5.468-1.351,9.52-3.229,14.062-8.814l.61-.5c1.472-7.237,3.436-18.571,5.477-30.816C386.034,219.67,381.075,218.886,375.671,217.494Z"/><path class="e" d="M83.686,126.736c4.169-3.5,9.4-7.7,12.582-10.257a1.933,1.933,0,0,1,2.5.059c2.842,2.508,10.351,9.732,14.093,13.232a1.867,1.867,0,0,1,.3,2.481c-2.909,3.659-5.567,7-8.759,10.668l-10.067,12.9H77.176Z"/><path class="f" d="M106.631,114.785a6.628,6.628,0,0,1,3.986-7.015c2.923-1.459,6.747-1.286,8.854-4.078a32.456,32.456,0,0,1,2.624-3.484c.851-.862,2.124-2.168,3.374-2.35a6.436,6.436,0,0,1,.9.059.5.5,0,0,1-.322-.293c-.115-.222-.12-.182-.017.121a6.531,6.531,0,0,1-.513,2.188,24.037,24.037,0,0,1-2.635,4.486,2.014,2.014,0,0,0,.718,2.736,2.044,2.044,0,0,0,2.736-.717c1.905-2.612,4.343-6.373,3.551-9.756-.882-3.77-5.569-3.152-8.013-1.459a17.2,17.2,0,0,0-3.508,3.16,22.338,22.338,0,0,0-1.4,1.885,4.419,4.419,0,0,1-1.356,1.629c-1.36.765-3.189.9-4.663,1.43a16.065,16.065,0,0,0-4.385,2.262c-3.235,2.471-4.343,6.335-3.79,10.259a2.013,2.013,0,0,0,2.461,1.4,2.052,2.052,0,0,0,1.4-2.46Z"/><path class="f" d="M112.562,117.434a3.869,3.869,0,0,1,.821-.476l-.477.2a4.189,4.189,0,0,1,.99-.266l-.532.071a4.764,4.764,0,0,1,1.2,0l-.532-.071a5.522,5.522,0,0,1,1.038.255,2,2,0,0,0,2.259-2.938,2.217,2.217,0,0,0-1.2-.92,7.6,7.6,0,0,0-1.6-.33,4.71,4.71,0,0,0-1.138,0,5.771,5.771,0,0,0-2.854,1.02,2.245,2.245,0,0,0-.919,1.2,2.043,2.043,0,0,0,.2,1.541,2.017,2.017,0,0,0,1.2.919,1.939,1.939,0,0,0,1.541-.2Z"/><path class="f" d="M114.518,122.227a51.845,51.845,0,0,1,4.9-8.848c.5-.723.992-1.462,1.533-2.155-.25.32.209-.084,0,.022-.3.15.405-.138.143-.058-.278.086.3-.077.028-.009-.2.049.081-.006.117-.006.02,0,.317.043.137,0s.377.249-.019,0c.121.076.392.308.17.086a1.478,1.478,0,0,0,.185.178c.2.135-.075-.238,0-.026.009.026.133.169.12.194s-.129-.374-.072-.165-.045-.249-.029-.245-.02.5-.023.563c-.035.854-.073,1.708-.13,2.561-.054.812-.128,1.622-.227,2.429-.014.118-.1.742-.039.319-.036.243-.069.487-.106.73-.083.554-.173,1.107-.264,1.66a2.049,2.049,0,0,0,1.4,2.461,2.026,2.026,0,0,0,2.461-1.4c.327-1.974.619-3.955.761-5.952.073-1.009.117-2.021.157-3.032a3.9,3.9,0,0,0-1.359-3.107,4.5,4.5,0,0,0-6.921.855c-1.145,1.577-2.266,3.173-3.276,4.841a50.628,50.628,0,0,0-3.1,6.079,2.054,2.054,0,0,0,.717,2.736,2.021,2.021,0,0,0,2.736-.717Z"/><path class="f" d="M125.147,115.258a24.58,24.58,0,0,1,4.25-4.243c.514-.381,1.032-.764,1.569-1.111.176-.114.357-.213.541-.312-.26.14-.01.011.065,0-.256.029-.073-.035.039.014-.3-.131.3.155.315.162.3.159.19.231.1.02.158.356.1.166.05.083.011.018.057.324.051.139-.007-.22,0,.2.007.244.013.307.075-.232.006.046-.171.686.021,0,.036.008a1.893,1.893,0,0,1-.152.324c-.146.3-.306.588-.467.878-.415.743-.855,1.472-1.3,2.2q-1.4,2.283-2.888,4.512c-.446.67-.9,1.336-1.376,1.984-.341.464-.654.858-1.054,1.319-.212.243-.429.482-.657.711-.08.081-.161.161-.244.239,0,0-.5.423-.222.213a2.062,2.062,0,0,0-.718,2.736,2.014,2.014,0,0,0,2.736.718,21.788,21.788,0,0,0,4.742-5.533q1.75-2.605,3.385-5.289c.968-1.592,2.289-3.418,2.164-5.368a4.61,4.61,0,0,0-7.083-3.559,27.186,27.186,0,0,0-6.719,6.037,2.058,2.058,0,0,0,0,2.828,2.014,2.014,0,0,0,2.828,0Z"/><path class="f" d="M123.407,123a2.6,2.6,0,0,1-.243.26q.269-.18-.02.015c-.159.095-.316.183-.483.263.348-.166-.34.107-.415.13-.186.057-.374.107-.562.156-1.067.279-2.142.531-3.215.789-2.215.533-4.436,1.046-6.665,1.523a2.013,2.013,0,0,0-1.4,2.46,2.047,2.047,0,0,0,2.46,1.4c2.387-.511,4.766-1.063,7.138-1.637,2.087-.506,4.738-.809,6.229-2.528A2,2,0,1,0,123.407,123Z"/><path class="f" d="M135.309,111.6c.66-.167,1.322-.323,1.993-.442a10.124,10.124,0,0,1,1.305-.156c.549-.037,1.1-.043,1.651-.028.341.01.682.029,1.022.055.065.005.932.108.573.049.181.03.362.064.539.11.108.027.214.059.319.095q-.353-.163-.061-.021c.288.226-.3-.254.13.11q-.236-.318-.121-.125t-.056-.15a2.282,2.282,0,0,1,.081.3c-.024-.252-.027-.256-.01-.01q-.018.356.017.026a2.677,2.677,0,0,1-.107.372c.161-.372-.212.256,0-.021a2.7,2.7,0,0,1-.3.3c.088-.09.062-.087-.079.011-.194.089-.207.1-.037.029-.127.052-.254.1-.382.152-.162.064-.325.125-.487.188q-.979.381-1.959.761-1.713.657-3.432,1.3-3.12,1.167-6.257,2.286a2.052,2.052,0,0,0-1.4,2.461,2.018,2.018,0,0,0,2.46,1.4c4.1-1.461,8.182-2.975,12.231-4.571a5.847,5.847,0,0,0,2.911-2.043,4.683,4.683,0,0,0,.713-3.529c-.406-2.288-2.416-3.141-4.485-3.394a21.254,21.254,0,0,0-7.84.636,2,2,0,1,0,1.063,3.857Z"/><path class="f" d="M132.1,105c.463-.083.928-.154,1.395-.217l-.532.071a36.646,36.646,0,0,1,4.716-.326,2,2,0,0,0,0-4,38.232,38.232,0,0,0-6.642.615,2.012,2.012,0,0,0-1.2.919,2.038,2.038,0,0,0-.2,1.541,2.017,2.017,0,0,0,.919,1.2,2.262,2.262,0,0,0,1.541.2Z"/><path class="c" d="M376.37,278.966l2.529,10.947a2.016,2.016,0,0,0,2.46,1.4,2.043,2.043,0,0,0,1.4-2.46L380.227,277.9a2.017,2.017,0,0,0-2.46-1.4,2.044,2.044,0,0,0-1.4,2.46Z"/><path class="c" d="M379.264,135.007q-.736,11.661-2.321,23.256c-.876,6.464-1.789,13.047-3.815,19.269a35.413,35.413,0,0,1-5.161,10.263,38.044,38.044,0,0,1-7.552,7.187c-5.69,4.424-11.695,8.455-17.756,12.35-5.219,3.354-10.51,6.611-15.912,9.661-.867.49-1.737,1.05-2.645,1.458-.347.155-.159.227-.368-.069-.3-.424-.568-.875-.848-1.312q-2.378-3.707-4.691-7.455-2.6-4.19-5.147-8.41-1.072-1.785-2.122-3.583c-.1-.169-.631-1.361-.791-1.381-.44-.057.042-.1-.058-.07l-.061.512.264-.176c.458-.033,1.416-.952,1.811-1.215,7.284-4.858,14.8-9.376,21.939-14.449a22.113,22.113,0,0,0,4.573-3.85,18.521,18.521,0,0,0,2.982-5.41,54.042,54.042,0,0,0,2.451-10.639c1.117-7.318,2.143-14.65,3.33-21.957q.38-2.337.793-4.669a2.055,2.055,0,0,0-1.4-2.46,2.018,2.018,0,0,0-2.461,1.4c-1.339,7.466-2.385,14.986-3.5,22.488-.53,3.559-.943,7.179-1.819,10.673-.971,3.873-2.289,7.584-5.635,10.013-7.339,5.33-15.129,10-22.68,15.013-1.774,1.178-4.63,2.43-4.563,4.951.037,1.391,1.05,2.708,1.732,3.873,1.629,2.78,3.308,5.532,5,8.277q2.616,4.254,5.284,8.478c1.506,2.38,3.144,6.21,6.6,5.449a12.79,12.79,0,0,0,3.2-1.548q1.639-.914,3.261-1.86,4.156-2.417,8.237-4.956c6.451-4,12.812-8.162,18.951-12.626,2.863-2.082,5.688-4.229,8.391-6.516a31.876,31.876,0,0,0,7.5-9.7c3.191-6.2,4.558-13.077,5.652-19.9,1.308-8.158,2.248-16.384,2.933-24.616q.238-2.867.421-5.738c.163-2.57-3.838-2.56-4,0Z"/><path class="c" d="M382.344,249.371A22.736,22.736,0,0,1,369,257.7a95.9,95.9,0,0,1-10.524,1.241c-10.4.914-20.84,1.449-31.269,1.943q-8.2.39-16.411.71c-2.565.1-2.578,4.1,0,4,10.483-.417,20.965-.883,31.438-1.5,9.089-.537,18.33-.917,27.32-2.446a25.9,25.9,0,0,0,15.617-9.447c1.623-1.973-1.191-4.819-2.829-2.829Z"/><path class="c" d="M384.881,257.027c1.567-5.64,2.469-11.5,3.5-17.258,1.656-9.248,3.193-18.517,4.715-27.787q2.34-14.256,4.634-28.518c1.077-6.632,2.123-13.273,3.33-19.883.612-3.352,1.361-7.686,4.254-9.889a4.94,4.94,0,0,1,2.526-.981,6.426,6.426,0,0,1,1.586.048,7.247,7.247,0,0,1,.713.186c-.216-.058-.159-.239-.183-.131a7.76,7.76,0,0,1,0,.891c-.08.859-.262,1.719-.395,2.572q-.406,2.624-.8,5.248c-2.155,14.351-4.062,28.739-5.93,43.131-1.628,12.542-3.192,25.1-4.953,37.619-.662,4.706-1.348,9.411-2.147,14.1-.707,4.144-1.574,8.211-3.964,11.72-5.708,8.377-17.695,8.242-26.9,8.242H315.4c-2.574,0-2.579,4,0,4h41.455c6.533,0,13.188.366,19.685-.444,4.966-.62,10.02-1.909,14.086-4.962,7.677-5.763,8.7-15.344,10.037-24.164,1.846-12.182,3.373-24.412,4.951-36.631,1.889-14.635,3.779-29.271,5.885-43.878q.78-5.413,1.606-10.822c.278-1.82.634-3.643.832-5.473a4.737,4.737,0,0,0-1-3.807c-1.728-1.854-5.345-1.762-7.541-.968a10.507,10.507,0,0,0-5.5,4.912c-1.762,3.136-2.389,6.689-3,10.185-.569,3.227-1.1,6.461-1.638,9.694-1.509,9.149-2.975,18.305-4.463,27.457-1.621,9.975-3.253,19.949-4.971,29.908-1.252,7.259-2.465,14.545-4.081,21.734-.218.968-.445,1.935-.711,2.891-.69,2.484,3.168,3.544,3.857,1.063Z"/><path class="c" d="M34.921,267.771l-2.529,10.947a2,2,0,1,0,3.857,1.064l2.529-10.947a2,2,0,1,0-3.857-1.064Z"/><path class="c" d="M34.124,245.832c-1.643-5.915-2.576-12.07-3.651-18.1-1.711-9.609-3.3-19.239-4.88-28.87q-2.383-14.558-4.73-29.121c-1.06-6.507-1.91-13.118-3.353-19.555-1.014-4.52-3.133-9.566-7.877-11.173-2.276-.771-5.909-.811-7.57,1.214a4.953,4.953,0,0,0-.812,3.871c.227,1.81.553,3.612.829,5.416,2.245,14.7,4.209,29.435,6.124,44.177,1.706,13.123,3.342,26.256,5.183,39.36.679,4.84,1.384,9.677,2.21,14.494.754,4.4,1.82,8.808,4.394,12.535C26.369,269.309,38.21,270.2,48.475,270.2H99.753c2.573,0,2.578-4,0-4H59.593c-6.392,0-12.882.324-19.253-.258-4.651-.425-9.442-1.5-13.308-4.245-6.839-4.851-7.5-14.324-8.686-22.131-1.762-11.627-3.223-23.3-4.729-34.962-1.832-14.188-3.663-28.377-5.676-42.541q-.774-5.443-1.59-10.882-.393-2.624-.8-5.244c-.121-.785-.288-1.575-.362-2.365a1.968,1.968,0,0,1,.055-.976.331.331,0,0,1-.234.217,7.326,7.326,0,0,1,.713-.187,6.366,6.366,0,0,1,1.733-.034,4.947,4.947,0,0,1,2.381.967,10.3,10.3,0,0,1,3.113,5.091,60.054,60.054,0,0,1,1.8,8.524q.869,5.058,1.689,10.124c1.491,9.091,2.95,18.187,4.43,27.279,1.569,9.634,3.15,19.266,4.817,28.884,1.2,6.906,2.359,13.84,3.906,20.679.209.922.427,1.843.68,2.755.688,2.477,4.548,1.425,3.857-1.064Z"/><path class="c" d="M331.66,167.345a10.576,10.576,0,0,1-2.07,3.081q-1.8,1.926-3.6,3.848l-7.191,7.7c-1.756,1.879,1.067,4.714,2.829,2.828l7.614-8.149c2.4-2.57,4.9-4.94,6.271-8.242a2.012,2.012,0,0,0-1.4-2.46,2.051,2.051,0,0,0-2.46,1.4Z"/><path class="c" d="M352.2,122.441a16.741,16.741,0,0,1,6.52-5.756,14.866,14.866,0,0,1,8.821-.765,13.049,13.049,0,0,1,4.914,1.937c2.04,1.293,4.447,3.776,4.765,6.3a2.064,2.064,0,0,0,2,2,2.012,2.012,0,0,0,2-2c-.784-6.224-6.695-10.957-12.616-12.095a19.43,19.43,0,0,0-11.38.932,20.7,20.7,0,0,0-8.478,7.427c-1.471,2.12,2,4.122,3.454,2.019Z"/><path class="c" d="M111.811,279.394V193.5c0-2.574-4-2.578-4,0v85.9c0,2.574,4,2.578,4,0Z"/><path class="c" d="M302.532,193.493v85.9c0,2.574,4,2.578,4,0v-85.9c0-2.574-4-2.578-4,0Z"/><path class="a" d="M312.376,183.566v13.171H101.965V183.566Z"/><path class="c" d="M310.376,183.566v13.171l2-2H101.965l2,2V183.566l-2,2H312.376c2.574,0,2.578-4,0-4H101.965a2.029,2.029,0,0,0-2,2v13.171a2.029,2.029,0,0,0,2,2H312.376a2.03,2.03,0,0,0,2-2V183.566C314.376,180.992,310.376,180.987,310.376,183.566Z"/><path class="c" d="M160.442,179.306h58.276c2.574,0,2.578-4,0-4H160.442c-2.574,0-2.578,4,0,4Z"/><path class="c" d="M318.266,216.112a86.31,86.31,0,0,1-11.689,5.37,2,2,0,0,0,1.063,3.857,94.147,94.147,0,0,0,12.645-5.774,2.018,2.018,0,0,0,.717-2.736,2.04,2.04,0,0,0-2.736-.717Z"/><path class="c" d="M135.182,139q12.623,19.768,25.631,39.288c1.416,2.135,4.882.134,3.454-2.019Q151.3,156.72,138.636,136.978c-1.382-2.163-4.845-.159-3.454,2.019Z"/><path class="c" d="M347.147,208.931c10.634,5.085,21.955,9.584,33.586,11.734,2.516.465,3.595-3.389,1.063-3.857-11.3-2.088-22.3-6.391-32.63-11.331-2.311-1.1-4.343,2.343-2.019,3.454Z"/><path class="c" d="M378.044,102.313a55.5,55.5,0,0,1,9.747,18.131,54.457,54.457,0,0,1,1.417,20.925c-.6,5.767-1.988,11.4-2.973,17.1a85.51,85.51,0,0,0-1.195,9.155,50.6,50.6,0,0,0,.832,10.045c.982,7.155,2.3,14.249,3.81,21.31.539,2.516,4.4,1.451,3.858-1.064-1.312-6.124-2.486-12.273-3.406-18.47-.522-3.524-1.257-7.163-1.146-10.738a64.051,64.051,0,0,1,1.02-8.685c1-5.873,2.394-11.659,3.083-17.583a59.555,59.555,0,0,0-1.045-21.606c-2-7.821-6.237-15.029-11.173-21.349a2.012,2.012,0,0,0-2.829,0,2.052,2.052,0,0,0,0,2.829Z"/><path class="a" d="M103.886,158.619a11.63,11.63,0,0,1,3.6-2.911c2.222-1.226,8.891-4.231,12.557-5.939a4.872,4.872,0,0,1,2.623-.427,2.128,2.128,0,0,1,1.6,1.015,2.492,2.492,0,0,1-.087,2.537,17.746,17.746,0,0,1-5.039,5.994c6.4,1.614,13.276,3.054,19.6,4.733a2.761,2.761,0,0,1,2.244,2.337,3.159,3.159,0,0,1-.4,2.011,2.529,2.529,0,0,1-1.9.844c2.828-1.4,4.162.409,4.315,1.072a2.788,2.788,0,0,1-.425,2.718,3.729,3.729,0,0,1-2.58.971l-2.655.1,1.281.844a2.652,2.652,0,0,1,1.086,2.175,1.69,1.69,0,0,1-1.552,1.751c-.992.067-2.133.127-3.356.18.37,3.209-1.5,3.415-3.086,3.5-4.446.228-15.143.3-16.659.268-5.473-.115-13.91-.865-18.233-4.126"/><path class="c" d="M105.613,159.629c1.013-1.431,3.266-2.425,4.942-3.242,2.11-1.027,4.244-2.006,6.376-2.988l3.033-1.4a10.425,10.425,0,0,1,1.311-.562c.17-.053,1.051-.3,1.226-.114.423.458-1.006,2.211-1.293,2.62a16.371,16.371,0,0,1-2.961,3.121,2.016,2.016,0,0,0,0,2.828,2.043,2.043,0,0,0,2.829,0,20.123,20.123,0,0,0,3.782-4.214c1.092-1.62,2.175-3.549,1.5-5.548a4.364,4.364,0,0,0-4.416-2.828,12.124,12.124,0,0,0-4.707,1.572c-2.682,1.236-5.371,2.458-8.033,3.736-2.595,1.247-5.332,2.584-7.04,5a2.016,2.016,0,0,0,.717,2.736,2.043,2.043,0,0,0,2.737-.717Z"/><path class="c" d="M119.059,160.923c3.328.832,6.67,1.6,10.01,2.382q2.46.574,4.915,1.17a28.811,28.811,0,0,1,4.485,1.143c.4.172.785.862.515,1.122-.346.333-2.139.012-2.717-.019-2.539-.138-5.073-.352-7.6-.58-2.567-.231-5.133-.486-7.7-.737a2.015,2.015,0,0,0-2,2,2.044,2.044,0,0,0,2,2c5.51.538,11.03,1.162,16.564,1.377a5.447,5.447,0,0,0,4.217-1.139,4.764,4.764,0,0,0,.978-4.923,4.972,4.972,0,0,0-3.449-3.027c-1.9-.568-3.86-.99-5.79-1.453-4.451-1.067-8.92-2.062-13.361-3.173-2.5-.625-3.563,3.231-1.063,3.857Z"/><path class="c" d="M140.828,170.317c.083.028.411.271.244.13q.189.343,0-.031a1.644,1.644,0,0,1,.076.449c.054.46.02.3-.076.405a1.546,1.546,0,0,1-.754.284,36.524,36.524,0,0,1-5.974.109c-4.373-.006-8.744-.124-13.117-.128-2.574,0-2.578,4,0,4,5.813,0,11.629.233,17.441.082,2.559-.067,5.587-.5,6.346-3.433a4.683,4.683,0,0,0-3.124-5.724c-2.444-.824-3.493,3.038-1.063,3.857Z"/><path class="c" d="M137.613,176.248c-.225-.169.08.3.13.428-.032-.084-.2.085-.022-.061.289-.243-.122,0,.132-.105.232-.1-.33-.081.3-.063-.366-.011-.746.048-1.111.069-1.689.1-3.379.162-5.07.215-3.416.109-6.835.175-10.253.14-2.574-.027-2.576,3.973,0,4,4.321.045,8.649-.056,12.966-.24,1.824-.077,4.273.212,5.737-1.084,2.193-1.941,1.3-5.178-.793-6.753a2.014,2.014,0,0,0-2.737.718,2.048,2.048,0,0,0,.718,2.736Z"/><path class="c" d="M132.805,179.933c-.37.321-1.281.2-1.745.221-.688.03-1.377.052-2.066.072-1.542.045-3.085.075-4.628.1-2.759.044-5.519.077-8.279.073a60.563,60.563,0,0,1-8.4-.55c-3.4-.483-7.028-1.245-9.852-3.31a2.014,2.014,0,0,0-2.736.718,2.045,2.045,0,0,0,.717,2.736c4.873,3.563,11.851,4.109,17.682,4.35,4.41.183,8.85.032,13.26-.061,2.806-.06,6.637.426,8.879-1.521,1.947-1.691-.892-4.51-2.828-2.828Z"/><path class="c" d="M85.1,128.151q3.781-3.174,7.628-6.269,1.715-1.388,3.434-2.769c.326-.262.889-.947,1.282-1.03s.015-.028.029-.025c.115.029.3.27.392.355,3.688,3.323,7.25,6.789,10.853,10.2q1.178,1.113,2.357,2.224c-.008-.008.4.371.386.34.066.174-.017-.423-.01.022,0,.207-.724.91-.862,1.083q-.567.713-1.136,1.424c-2.113,2.638-4.342,5.178-6.473,7.8-1.588,1.954-3.1,3.974-4.65,5.959l-5.414,6.939a2.064,2.064,0,0,0,0,2.828,2.012,2.012,0,0,0,2.828,0c3.645-4.671,7.154-9.493,11.01-13.992,2.48-2.894,4.865-5.866,7.237-8.849,1.231-1.547,2.051-3.151,1.012-5.077a12.66,12.66,0,0,0-2.654-2.769c-3.922-3.709-7.761-7.533-11.811-11.1-1.4-1.236-3.225-1.906-4.991-.887a33.627,33.627,0,0,0-3.937,3.114c-3.133,2.526-6.256,5.063-9.339,7.65-1.974,1.657.868,4.474,2.829,2.829Z"/><path class="e" d="M38.7,107.927c1.787-2.681,6.173-4.7,9.786-4.634,7.458.13,11.834,2.752,14.6,7.9,2.012,3.749,2.366,8.722,2.742,12.865.747,8.222,2.631,23.321,3.237,25.938.722,3.117,4.887,5.537,7.08,5.621,9.3.357,16.849.727,25.7.451a1.227,1.227,0,0,1,1.438,1.2c.586,8.6.351,16.208.211,24.846a1.489,1.489,0,0,1-1.176,1.377c-14.556,1.413-26.058,1.88-41.292.276-4.033-.425-11.538-1.844-15.8-5.851-2.534-2.384-5.182-4.642-6.872-9.357-4.587-12.8-5.193-28.557-5.364-43.007"/><path class="c" d="M40.425,108.936c2.043-2.9,6.131-3.8,9.445-3.587a14.268,14.268,0,0,1,8.4,2.919c5.5,4.665,5.214,12.749,5.893,19.312.675,6.528,1.444,13.055,2.395,19.548.346,2.368.619,4.525,2.185,6.459a11.457,11.457,0,0,0,3.914,3.04,11.821,11.821,0,0,0,4.959,1.043c4.586.179,9.172.373,13.761.452q3.48.061,6.963.019.807-.011,1.614-.028c.389-.008,1.308.159,1.641-.042.251-.152.435.226-.044-.316s-.253-.092-.233.253c.037.653.078,1.3.11,1.957.241,4.8.247,9.6.181,14.408q-.023,1.669-.053,3.337-.013.847-.029,1.694a7.022,7.022,0,0,0-.039,2.212l.01.137q-.019.377.238-.153c-.042-.21.559.242-.141-.042a5.406,5.406,0,0,0-1.638.153q-1.828.168-3.659.318a190.326,190.326,0,0,1-26.493.462c-7.111-.414-15.2-.672-21.409-4.632a22.278,22.278,0,0,1-6.751-6.949c-2.131-3.563-3.07-8-3.925-12.02-1.864-8.762-2.388-17.76-2.621-26.695-.058-2.215-.093-4.429-.12-6.644-.032-2.572-4.032-2.579-4,0a206.736,206.736,0,0,0,1.907,29.042,80.408,80.408,0,0,0,3.122,13.325,25.652,25.652,0,0,0,16.323,16.087,50.51,50.51,0,0,0,10.89,1.981,180.564,180.564,0,0,0,28.633.369c2.472-.16,4.941-.359,7.409-.58,2.183-.2,4.8.014,5.891-2.3a8.86,8.86,0,0,0,.364-3.583q.036-2.048.07-4.1c.04-2.508.068-5.016.056-7.524-.012-2.528-.065-5.055-.181-7.58-.1-2.157.3-5.308-2.114-6.336a6.886,6.886,0,0,0-2.929-.254q-1.95.048-3.9.056c-2.455.011-4.91-.022-7.365-.082-2.417-.06-4.834-.146-7.25-.238l-3.8-.149a12.293,12.293,0,0,1-2.588-.209,7.735,7.735,0,0,1-3.781-2.522,5.54,5.54,0,0,1-.976-2.687c-1.084-6.366-1.756-12.823-2.442-19.241-.813-7.6-.551-16.17-5.88-22.262-4.949-5.659-14.491-7.066-21.05-3.663a12.223,12.223,0,0,0-4.419,3.812c-1.484,2.11,1.983,4.111,3.454,2.019Z"/><path class="c" d="M29.975,242.068a27.52,27.52,0,0,0,6.944,6.221,27.846,27.846,0,0,0,7.31,2.932,70.041,70.041,0,0,0,11.281,1.486c10.668.978,21.379,1.521,32.079,2.03q8.379.4,16.761.727c2.574.1,2.569-3.9,0-4-10.245-.408-20.489-.863-30.725-1.46-5.156-.3-10.312-.635-15.459-1.065-3.688-.308-7.621-.658-10.97-1.192a23.752,23.752,0,0,1-7.093-2.262,23.592,23.592,0,0,1-7.3-6.245c-1.637-1.989-4.453.854-2.829,2.828Z"/><path class="c" d="M104.294,200.742c-4.763-1.8-9.54-3.558-14.271-5.44a2.014,2.014,0,0,0-2.46,1.4,2.047,2.047,0,0,0,1.4,2.46c4.731,1.882,9.508,3.641,14.27,5.44a2.016,2.016,0,0,0,2.46-1.4,2.044,2.044,0,0,0-1.4-2.46Z"/><path class="c" d="M80.454,191.008a74.425,74.425,0,0,1-1.612,15.839c-.937,4.367-2.631,8.64-6.483,11.133C64,223.387,53.1,223.73,43.472,223.809c-4.668.038-9.32-.169-13.979-.412-2.572-.135-2.565,3.866,0,4,10.567.551,21.332.909,31.787-1.039A38.063,38.063,0,0,0,73.958,221.7c4.236-2.582,6.791-6.667,8.146-11.373a69.7,69.7,0,0,0,2.35-19.316c0-2.574-4-2.578-4,0Z"/><path class="c" d="M338.444,174.408c-.991-6.434-2.475-12.777-3.651-19.177A61.11,61.11,0,0,1,333.614,147a42.348,42.348,0,0,1,.421-7.745,54.141,54.141,0,0,1,5.472-16.494c1.355-2.764,2.645-5.733,4.621-8.119a55.972,55.972,0,0,1,5.938-6.069,123.3,123.3,0,0,1,16.811-12.093c2.178-1.361.173-4.823-2.019-3.454a140.048,140.048,0,0,0-16.012,11.329,64.148,64.148,0,0,0-6.611,6.38,35.137,35.137,0,0,0-4.9,7.471c-2.959,5.68-5.64,11.5-6.805,17.833a54.666,54.666,0,0,0-.937,8.747,45.51,45.51,0,0,0,.768,8.2c1.214,7.534,3.065,14.95,4.227,22.493a2.016,2.016,0,0,0,2.461,1.4,2.049,2.049,0,0,0,1.4-2.46Z"/><path class="c" d="M33.116,91.24a52.307,52.307,0,0,0-9.776,17.422,55.167,55.167,0,0,0-2.024,21.053c.5,6.188,1.86,12.185,2.973,18.274.546,2.985,1.056,5.988,1.306,9.014a43.131,43.131,0,0,1-.57,9.426c-.982,7.295-2.326,14.526-3.867,21.722-.537,2.51,3.318,3.583,3.857,1.063,1.282-5.985,2.434-11.993,3.342-18.047a78.159,78.159,0,0,0,1.366-11.461,57.294,57.294,0,0,0-.883-8.713c-.857-5.506-2.2-10.926-2.991-16.442a58.694,58.694,0,0,1,.421-21.437,46.55,46.55,0,0,1,9.675-19.046c1.626-1.971-1.189-4.816-2.829-2.828Z"/><path class="c" d="M39.283,86.8c.091-.382.187-.763.285-1.143.149-.58.245-1.869.694-2.274.7-.628,2.9.346,3.69.58a45.754,45.754,0,0,1,8.892,3.789,52.941,52.941,0,0,1,13.161,9.606,41.138,41.138,0,0,1,5.3,7.721,76.159,76.159,0,0,1,4.483,8.946c2.617,6.266,5.252,12.787,6.129,19.553.944,7.275-.825,14.617-2.257,21.712-.508,2.514,3.347,3.589,3.857,1.064,1.38-6.839,3.08-13.956,2.582-20.977-.546-7.688-3.389-14.867-6.259-21.941a81.564,81.564,0,0,0-4.863-10,46.425,46.425,0,0,0-6.142-8.908A56.874,56.874,0,0,0,54.009,83.84a45.648,45.648,0,0,0-11.14-4.293c-2.055-.458-4.092-.531-5.608,1.193-1.165,1.324-1.437,3.326-1.836,4.994-.6,2.5,3.259,3.57,3.858,1.064Z"/><path class="c" d="M36.766,88.673a59.068,59.068,0,0,1,15.5,5.917,2,2,0,1,0,2.019-3.454,62.965,62.965,0,0,0-16.458-6.32,2.046,2.046,0,0,0-2.46,1.4,2.02,2.02,0,0,0,1.4,2.46Z"/><path class="g" d="M359.722,8.841c-1.58-.121-3.24-.171-4.989-.146a42.9,42.9,0,0,0-12.189,2.284A32.222,32.222,0,0,0,324.6,27.441a30.643,30.643,0,0,0-1.839,5.1l.918.816A100.82,100.82,0,0,0,350.25,50.352a17.832,17.832,0,0,0,6.23,1.782l2.955.131a5.54,5.54,0,0,1,1-.349,4.917,4.917,0,0,1,4.16.648c1.695,1.239,2.471,3.827,2.363,5.957-.284,5.592-3.173,9.356-8.244,11.657,1.555,4.044,3.209,8.172,3.417,12.451.153,3.153-1.037,7.986-4.354,10.253A32.614,32.614,0,0,0,385.889,98.4a11.482,11.482,0,0,0,8.02-9.042,35.219,35.219,0,0,0-.211-9.785c-.766-4.815-2.072-10.224.3-22.668A54.02,54.02,0,0,0,395.3,44.093a34.66,34.66,0,0,0-7.437-19.458C380.449,15.741,372.817,9.844,359.722,8.841Z"/><path class="c" d="M358.673,55.358c1.3-1.4,3.781-2.534,5.248-.689,1.237,1.556,1.181,3.845.824,5.613a10.2,10.2,0,0,1-2.333,4.881,13.6,13.6,0,0,1-5.028,3.428,2.065,2.065,0,0,0-1.4,2.46,2.012,2.012,0,0,0,2.46,1.4c4.293-1.776,7.866-4.584,9.559-9.028s1.41-11.26-3.735-13.262c-3.012-1.173-6.327.108-8.427,2.371-1.75,1.885,1.072,4.72,2.828,2.829Z"/><path class="c" d="M323.364,42.751a33.233,33.233,0,0,1,6.145-19.608,29.349,29.349,0,0,1,15.4-10.812c11.869-3.448,25.253-1.593,34.736,6.632,4.62,4.006,8.914,8.856,11.214,14.582a35.7,35.7,0,0,1,1.771,19.723c-1.075,6.4-2.336,12.746-1.88,19.275.363,5.194,1.741,10.176,1.312,15.433a9.46,9.46,0,0,1-4.361,7.4,15.055,15.055,0,0,1-6.159,1.888,30.945,30.945,0,0,1-17.633-2.916,34.073,34.073,0,0,1-4.938-3.056,2.014,2.014,0,0,0-2.736.717,2.048,2.048,0,0,0,.717,2.737,34.8,34.8,0,0,0,20.8,6.755c5.672-.031,11.785-1.132,15.488-5.84,4.332-5.508,2.923-13.053,1.928-19.452a45.156,45.156,0,0,1-.522-6.68,60.561,60.561,0,0,1,.94-10.215A92.693,92.693,0,0,0,397.33,46.8a35.339,35.339,0,0,0-1.255-10.208,35.7,35.7,0,0,0-4.5-10.28A49.743,49.743,0,0,0,385.1,18.6a39.394,39.394,0,0,0-14.9-9.7A43.433,43.433,0,0,0,348.346,7.4a34.135,34.135,0,0,0-28.478,29.241,44.376,44.376,0,0,0-.5,6.112c-.023,2.575,3.977,2.577,4,0Z"/><path class="c" d="M357.011,71.306c1.495,3.88,3.27,8.071,3.122,12.31-.1,2.784-1.157,6.071-3.578,7.677-2.135,1.416-.134,4.882,2.019,3.454,3.47-2.3,5.13-6.308,5.508-10.339.454-4.855-1.5-9.728-3.214-14.165a2.059,2.059,0,0,0-2.46-1.4,2.016,2.016,0,0,0-1.4,2.46Z"/><path class="c" d="M322.259,34.771a104.683,104.683,0,0,0,16.022,11.7q4.164,2.465,8.554,4.52c3.082,1.443,6.2,2.914,9.645,3.143,2.57.17,2.56-3.831,0-4-2.955-.2-5.8-1.716-8.421-2.973q-4.167-2-8.137-4.368a99.006,99.006,0,0,1-14.834-10.85c-1.922-1.7-4.762,1.119-2.829,2.828Z"/><path class="a" d="M359.352,70.789a3.7,3.7,0,0,0-3.829,3.674,3.633,3.633,0,0,0,4.048,3.5c2.383-.072,3.893-1.61,3.828-3.74A3.694,3.694,0,0,0,359.352,70.789Z"/><path class="c" d="M359.352,68.789a5.951,5.951,0,0,0-5.593,4A5.57,5.57,0,0,0,356,79a6.613,6.613,0,0,0,6.656.151,5.563,5.563,0,0,0,2.607-6,5.809,5.809,0,0,0-5.915-4.364,2,2,0,0,0,0,4c.2,0,.39.008.585.017.421.021-.491-.1-.087-.007.071.016.143.029.214.047.17.042.338.128.508.161-.472-.093-.3-.132-.1-.03.09.046.178.1.264.151.071.043.137.1.208.139.215.125-.393-.349-.134-.1.118.114.231.227.344.345.247.259-.224-.354-.105-.139.039.069.091.133.133.2s.076.14.117.209c.224.378-.134-.421-.029-.082.049.154.091.308.132.464s-.014.315-.024-.242c0,.1.018.2.022.3,0,.171-.006.34-.016.511s-.113.218.033-.238c-.034.106-.044.223-.073.331s-.224.618-.071.248-.081.123-.136.21c-.041.064-.091.124-.13.189.268-.452.247-.3.14-.191-.128.132-.272.252-.4.384.369-.385.267-.2.1-.091-.054.035-.108.068-.163.1-.085.049-.173.09-.259.136-.151.079-.235.013.2-.084-.164.037-.325.115-.49.157-.1.026-.209.045-.314.068-.359.081.494-.034.093-.011-.192.011-.381.026-.573.023s-.8-.118-.124.02c-.171-.035-.343-.061-.512-.108-.066-.017-.131-.037-.2-.058-.5-.162.311.173.014.017-.143-.075-.287-.147-.424-.235-.051-.034-.1-.08-.157-.108.448.234.266.215.11.074-.1-.095-.191-.21-.294-.3-.18-.164.3.442.111.145-.051-.08-.105-.158-.152-.24s-.08-.177-.132-.253c.248.365.144.378.09.21s-.1-.312-.139-.474c-.046-.212.027-.4.006.128,0-.066-.013-.142-.017-.209-.011-.2.015-.4.016-.6,0,.564-.067.377-.016.2.031-.108.053-.217.088-.324.019-.057.05-.121.064-.18-.143.328-.172.4-.086.214.029-.057.058-.114.09-.169s.064-.111.1-.165.07-.107.108-.16q-.312.393-.164.214c.128-.126.239-.268.374-.388.176-.157.313-.118-.093.063a2.582,2.582,0,0,0,.254-.167c.074-.045.152-.082.226-.125.4-.235-.4.132-.044.009a5.126,5.126,0,0,1,.632-.182c.074-.015.151-.023.224-.04-.615.145-.128.026.052.018a2,2,0,0,0,0-4Z"/></svg>