<?xml version="1.0" encoding="UTF-8"?>
<svg id="_レイヤー_1" data-name="レイヤー 1" xmlns="http://www.w3.org/2000/svg" viewBox="0 0 67.6 56.96">
  <defs>
    <style>
      .cls-1 {
        fill: #000;
        stroke-width: 0px;
      }
    </style>
  </defs>
  <g>
    <path class="cls-1" d="M4.92,28.45L0,11.03l2.7-.76.62,1.23.07-.02c.4-.6.87-1.14,1.42-1.64.55-.49,1.16-.84,1.83-1.03,1.03-.29,1.99-.28,2.88.05.88.33,1.66.91,2.33,1.75.67.84,1.18,1.91,1.55,3.22.41,1.44.5,2.74.28,3.9s-.67,2.13-1.33,2.89c-.67.76-1.46,1.27-2.37,1.53-.54.15-1.11.18-1.71.09-.6-.09-1.2-.28-1.8-.58l.69,2.01,1.09,3.84-3.31.93ZM8.47,19.63c.49-.14.9-.41,1.23-.82.32-.41.52-.94.59-1.61.07-.67-.02-1.46-.28-2.37-.22-.79-.51-1.45-.84-1.96-.34-.51-.73-.86-1.17-1.04s-.95-.19-1.54-.03c-.42.12-.8.34-1.14.66-.34.32-.66.76-.98,1.32l1.57,5.55c.51.25.97.38,1.4.41s.81-.01,1.16-.11Z"/>
    <path class="cls-1" d="M24.02,19.59c-1.09.1-2.13-.07-3.14-.52-1.01-.45-1.85-1.16-2.54-2.11-.69-.96-1.1-2.16-1.24-3.6-.14-1.44.04-2.7.53-3.77s1.19-1.92,2.09-2.56c.9-.63,1.89-1,2.98-1.11.82-.08,1.62,0,2.39.24.77.24,1.48.62,2.13,1.15s1.18,1.19,1.6,2.01c.42.81.69,1.76.79,2.85.14,1.44-.04,2.7-.53,3.77-.49,1.07-1.19,1.93-2.09,2.56-.9.63-1.89,1-2.98,1.11ZM23.75,16.8c.59-.06,1.07-.27,1.45-.64.38-.37.64-.87.79-1.5.15-.62.19-1.35.11-2.17-.08-.82-.25-1.52-.52-2.11-.27-.58-.62-1.02-1.06-1.32-.44-.29-.96-.41-1.55-.36-.59.06-1.07.27-1.45.64-.38.37-.64.87-.79,1.5-.15.62-.19,1.35-.11,2.17.08.82.25,1.52.52,2.11.27.58.62,1.02,1.06,1.32s.96.41,1.55.36Z"/>
    <path class="cls-1" d="M33.76,18.87l.49-13.07,3.43.13-.49,13.07-3.43-.13ZM36.05,3.74c-.61-.02-1.08-.21-1.43-.56-.35-.35-.51-.81-.49-1.39.02-.56.22-1,.59-1.33.37-.33.86-.48,1.47-.46.58.02,1.04.21,1.4.57.36.36.53.81.51,1.38-.02.58-.23,1.02-.61,1.34-.39.32-.87.47-1.44.45Z"/>
    <path class="cls-1" d="M41.48,19.18l2.25-12.89,2.76.48-.04,1.75h.07c.66-.44,1.37-.81,2.11-1.09.75-.28,1.55-.34,2.43-.19,1.4.24,2.33.88,2.8,1.9.47,1.02.56,2.35.28,3.97l-1.41,8.03-3.38-.59,1.33-7.62c.17-1,.16-1.72-.06-2.17-.21-.45-.64-.73-1.29-.84-.52-.09-1-.05-1.43.13-.43.18-.93.46-1.49.85l-1.55,8.86-3.38-.59Z"/>
    <path class="cls-1" d="M61.07,24.2c-.97-.33-1.7-.79-2.17-1.39s-.72-1.28-.76-2.07.11-1.63.42-2.55l1.86-5.51-1.75-.59.82-2.41,1.98.5,1.51-3.21,2.68.91-1.13,3.34,3.08,1.04-.87,2.57-3.08-1.04-1.86,5.49c-.24.71-.27,1.28-.09,1.72.18.44.54.75,1.09.94.21.07.43.11.67.13s.45.02.64.02l-.25,2.56c-.38-.01-.8-.04-1.27-.08-.47-.04-.98-.16-1.52-.34Z"/>
  </g>
  <g>
    <path class="cls-1" d="M23.22,56.96c-1.62,0-3.04-.46-4.24-1.39-1.21-.93-2.14-2.29-2.8-4.08-.66-1.79-.99-3.99-.99-6.59s.33-4.82.99-6.58c.66-1.76,1.59-3.09,2.8-3.98,1.2-.9,2.62-1.34,4.24-1.34s3.03.45,4.24,1.34c1.2.9,2.14,2.22,2.8,3.98.66,1.76.99,3.95.99,6.58s-.33,4.8-.99,6.59c-.66,1.79-1.6,3.15-2.8,4.08-1.21.93-2.62,1.39-4.24,1.39ZM23.22,53.28c.7,0,1.32-.25,1.86-.75.53-.5.95-1.37,1.25-2.59.3-1.23.45-2.91.45-5.04s-.15-3.83-.45-5.02c-.3-1.19-.71-2.03-1.25-2.5-.53-.47-1.15-.7-1.86-.7-.66,0-1.26.23-1.81.7-.54.47-.98,1.3-1.3,2.5-.32,1.2-.48,2.87-.48,5.02s.16,3.81.48,5.04c.32,1.23.75,2.09,1.3,2.59.54.5,1.15.75,1.81.75Z"/>
    <path class="cls-1" d="M36.89,56.51v-3.84h5.12v-14.3h-4.32v-2.94c1.19-.23,2.22-.51,3.09-.83.86-.32,1.67-.7,2.42-1.15h3.49v19.23h4.45v3.84h-14.24Z"/>
  </g>
</svg>